<svg width="64" height="65" viewBox="0 0 64 65" fill="none" xmlns="http://www.w3.org/2000/svg">
<path fill-rule="evenodd" clip-rule="evenodd" d="M37 13.6594L43 7.65939H53L56 10.6594V19.6594H51V23.6594L50 24.6594L51 25.6594V29.6594L50 30.1594L51 30.6594V34.6594L47 38.6594V45.6594L53 51.6594V54.6594L52 55.6594H12L11 54.6594V51.6594L17 45.6594V38.6594L13 34.6594V30.6594L14 30.1594L13 29.6594V25.6594L14 24.6594L13 23.6594V19.6594H8V10.6594L11 7.65939H21L27 13.6594H37Z" fill="#202427"/>
<path fill-rule="evenodd" clip-rule="evenodd" d="M11 51.6594L14 48.6594H50L53 51.6594H11ZM51 29.6594C51 29.1074 50.552 28.6594 50 28.6594H49C48.448 28.6594 48 29.1074 48 29.6594V30.6594C48 31.2114 48.448 31.6594 49 31.6594H50C50.552 31.6594 51 31.2114 51 30.6594V29.6594ZM16 29.6594C16 29.1074 15.552 28.6594 15 28.6594H14C13.448 28.6594 13 29.1074 13 29.6594V30.6594C13 31.2114 13.448 31.6594 14 31.6594H15C15.552 31.6594 16 31.2114 16 30.6594V29.6594ZM19 28.6594V26.6594C19 26.6594 19 25.6594 18 25.6594H13V23.6594H15L20 18.6594V20.6594C20 20.6594 20 21.6594 21 21.6594H25C26 21.6594 26 20.6594 26 20.6594V13.6594H38V20.6594C38 20.6594 38 21.6594 39 21.6594H43C44 21.6594 44 20.6594 44 20.6594V18.6594L49 23.6594H51V25.6594H46C45 25.6594 45 26.6594 45 26.6594V28.6594H19Z" fill="#3A3E40"/>
<path fill-rule="evenodd" clip-rule="evenodd" d="M53 54.6594H11V58.6594H53V54.6594ZM16 46.6594V40.6594L13 37.6594V34.6594H19V32.6594C19 32.6594 19 31.6594 20 31.6594H44C45 31.6594 45 32.6594 45 32.6594V34.6594H51V37.6594L48 40.6594V46.6594H16ZM34 42.6594C34 42.1074 33.552 41.6594 33 41.6594H31C30.448 41.6594 30 42.1074 30 42.6594V43.6594C30 44.2114 30.448 44.6594 31 44.6594H33C33.552 44.6594 34 44.2114 34 43.6594V42.6594ZM46 42.6594C46 42.1074 45.552 41.6594 45 41.6594H43C42.448 41.6594 42 42.1074 42 42.6594V43.6594C42 44.2114 42.448 44.6594 43 44.6594H45C45.552 44.6594 46 44.2114 46 43.6594V42.6594ZM40 42.6594C40 42.1074 39.552 41.6594 39 41.6594H37C36.448 41.6594 36 42.1074 36 42.6594V43.6594C36 44.2114 36.448 44.6594 37 44.6594H39C39.552 44.6594 40 44.2114 40 43.6594V42.6594ZM28 42.6594C28 42.1074 27.552 41.6594 27 41.6594H25C24.448 41.6594 24 42.1074 24 42.6594V43.6594C24 44.2114 24.448 44.6594 25 44.6594H27C27.552 44.6594 28 44.2114 28 43.6594V42.6594ZM22 42.6594C22 42.1074 21.552 41.6594 21 41.6594H19C18.448 41.6594 18 42.1074 18 42.6594V43.6594C18 44.2114 18.448 44.6594 19 44.6594H21C21.552 44.6594 22 44.2114 22 43.6594V42.6594ZM43 6.65939H53L57 10.6594V20.6594H50L43 13.6594V6.65939ZM21 6.65939H11L7 10.6594V20.6594H14L21 13.6594V6.65939ZM53 14.6594C54.104 14.6594 55 15.5554 55 16.6594C55 17.7634 54.104 18.6594 53 18.6594C51.896 18.6594 51 17.7634 51 16.6594C51 15.5554 51.896 14.6594 53 14.6594ZM11 14.6594C9.896 14.6594 9 15.5554 9 16.6594C9 17.7634 9.896 18.6594 11 18.6594C12.104 18.6594 13 17.7634 13 16.6594C13 15.5554 12.104 14.6594 11 14.6594ZM53 9.65939C54.104 9.65939 55 10.5554 55 11.6594C55 12.7634 54.104 13.6594 53 13.6594C51.896 13.6594 51 12.7634 51 11.6594C51 10.5554 51.896 9.65939 53 9.65939ZM11 9.65939C9.896 9.65939 9 10.5554 9 11.6594C9 12.7634 9.896 13.6594 11 13.6594C12.104 13.6594 13 12.7634 13 11.6594C13 10.5554 12.104 9.65939 11 9.65939Z" fill="#505355"/>
</svg>
