<svg width="65" height="65" viewBox="0 0 65 65" fill="none" xmlns="http://www.w3.org/2000/svg">
<path fill-rule="evenodd" clip-rule="evenodd" d="M19.223 26.575L23.223 30.575V34.575L24.223 35.575V36.575L23.223 37.575V41.575L24.223 42.575V49.575L23.223 50.575V55.575H44.223V50.575L43.723 49.575V42.575L44.223 41.575V37.575L43.223 36.575V35.575L44.223 34.575V30.575L43.223 29.575V26.575L44.223 25.075L43.223 23.575V21.575L44.223 20.575V17.575L43.223 16.575V11.575L39.223 7.57495H38.223L36.723 8.57495L35.223 7.57495H32.244L30.798 8.57495L29.215 7.57495H26.27L24.729 8.57495L23.223 7.57495L17.723 14.075L19.223 26.575Z" fill="#202427"/>
<path fill-rule="evenodd" clip-rule="evenodd" d="M19.223 12.575H16.223V23.575L19.223 26.575V12.575ZM26.223 7.57495H23.223V17.575H26.223V7.57495ZM32.223 7.57495H29.223V17.575H32.223V7.57495ZM38.223 7.57495H35.223V17.575H38.223V7.57495ZM44.223 10.575H41.223V17.575H44.223V10.575Z" fill="#3A3E40"/>
<path fill-rule="evenodd" clip-rule="evenodd" d="M48.223 54.575H20.223V57.575H48.223V54.575ZM44.223 41.575H23.223V50.575H44.223V41.575ZM28.223 45.575C28.223 45.023 27.775 44.575 27.223 44.575H26.223C25.671 44.575 25.223 45.023 25.223 45.575V46.575C25.223 47.127 25.671 47.575 26.223 47.575H27.223C27.775 47.575 28.223 47.127 28.223 46.575V45.575ZM38.223 45.575C38.223 45.023 37.775 44.575 37.223 44.575H36.223C35.671 44.575 35.223 45.023 35.223 45.575V46.575C35.223 47.127 35.671 47.575 36.223 47.575H37.223C37.775 47.575 38.223 47.127 38.223 46.575V45.575ZM33.223 45.575C33.223 45.023 32.775 44.575 32.223 44.575H31.223C30.671 44.575 30.223 45.023 30.223 45.575V46.575C30.223 47.127 30.671 47.575 31.223 47.575H32.223C32.775 47.575 33.223 47.127 33.223 46.575V45.575ZM43.223 45.575C43.223 45.023 42.775 44.575 42.223 44.575H41.223C40.671 44.575 40.223 45.023 40.223 45.575V46.575C40.223 47.127 40.671 47.575 41.223 47.575H42.223C42.775 47.575 43.223 47.127 43.223 46.575V45.575ZM44.223 34.575H23.223V37.575H44.223V34.575ZM44.223 21.575C44.223 21.575 44.223 20.575 43.223 20.575H24.223C23.223 20.575 23.223 21.575 23.223 21.575V30.575L44.223 30.6199V21.575ZM28.223 24.575C28.223 24.023 27.775 23.575 27.223 23.575H26.223C25.671 23.575 25.223 24.023 25.223 24.575V25.575C25.223 26.127 25.671 26.575 26.223 26.575H27.223C27.775 26.575 28.223 26.127 28.223 25.575V24.575ZM38.223 24.575C38.223 24.023 37.775 23.575 37.223 23.575H36.223C35.671 23.575 35.223 24.023 35.223 24.575V25.575C35.223 26.127 35.671 26.575 36.223 26.575H37.223C37.775 26.575 38.223 26.127 38.223 25.575V24.575ZM33.223 24.575C33.223 24.023 32.775 23.575 32.223 23.575H31.223C30.671 23.575 30.223 24.023 30.223 24.575V25.575C30.223 26.127 30.671 26.575 31.223 26.575H32.223C32.775 26.575 33.223 26.127 33.223 25.575V24.575ZM43.223 24.575C43.223 24.023 42.775 23.575 42.223 23.575H41.223C40.671 23.575 40.223 24.023 40.223 24.575V25.575C40.223 26.127 40.671 26.575 41.223 26.575H42.223C42.775 26.575 43.223 26.127 43.223 25.575V24.575Z" fill="#505355"/>
</svg>
