<svg width="64" height="65" viewBox="0 0 64 65" fill="none" xmlns="http://www.w3.org/2000/svg">
<path fill-rule="evenodd" clip-rule="evenodd" d="M24 11.075C24 9.57495 27 7.57495 28.5 7.57495H53C55.5 7.57495 57 10.575 57 12.575V34.575L56 35.575H46L45 34.575V16.575C45 15.575 44 15.575 44 15.575H27V20.575L29 24.575L31.6 26.575L38 36.575L37.92 38.4949L25.5 47.4949L13.08 38.4949L13 36.575L19.4 26.575L22 24.575L24 20.575V11.075ZM27 11.575C27 10.575 28 10.575 28 10.575H52.5C52.5 10.575 54 10.575 54 13.075V31.575C54 32.575 53 32.575 53 32.575H49C48 32.575 48 31.575 48 31.575V16.575C48 12.575 44 12.575 44 12.575H28C28 12.575 27 12.575 27 11.575Z" fill="#202427"/>
<path fill-rule="evenodd" clip-rule="evenodd" d="M31 57.575L26 52.575L21 57.575H31ZM43 50.575H37V56.575L43 50.575ZM15 50.575H9L15 56.575V50.575Z" fill="#505355"/>
<path fill-rule="evenodd" clip-rule="evenodd" d="M31.621 26.575C34.301 28.869 38 32.275 38 36.075C38 36.239 37.997 36.403 37.991 36.566L32 30.575L25.5 36.575L19 30.575L13.009 36.566C13.003 36.403 13 36.239 13 36.075C13 32.275 16.699 28.869 19.379 26.575H31.621ZM57 33.575C57 33.023 56.552 32.575 56 32.575H55C54.448 32.575 54 33.023 54 33.575V34.575C54 35.127 54.448 35.575 55 35.575H56C56.552 35.575 57 35.127 57 34.575V33.575ZM52 33.575C52 33.023 51.552 32.575 51 32.575H50C49.448 32.575 49 33.023 49 33.575V34.575C49 35.127 49.448 35.575 50 35.575H51C51.552 35.575 52 35.127 52 34.575V33.575ZM48 33.575C48 33.023 47.552 32.575 47 32.575H46C45.448 32.575 45 33.023 45 33.575V34.575C45 35.127 45.448 35.575 46 35.575H47C47.552 35.575 48 35.127 48 34.575V33.575ZM57 29.575C57 29.023 56.552 28.575 56 28.575H55C54.448 28.575 54 29.023 54 29.575V30.575C54 31.127 54.448 31.575 55 31.575H56C56.552 31.575 57 31.127 57 30.575V29.575ZM48 29.575C48 29.023 47.552 28.575 47 28.575H46C45.448 28.575 45 29.023 45 29.575V30.575C45 31.127 45.448 31.575 46 31.575H47C47.552 31.575 48 31.127 48 30.575V29.575ZM57 25.575C57 25.023 56.552 24.575 56 24.575H55C54.448 24.575 54 25.023 54 25.575V26.575C54 27.127 54.448 27.575 55 27.575H56C56.552 27.575 57 27.127 57 26.575V25.575ZM48 25.575C48 25.023 47.552 24.575 47 24.575H46C45.448 24.575 45 25.023 45 25.575V26.575C45 27.127 45.448 27.575 46 27.575H47C47.552 27.575 48 27.127 48 26.575V25.575ZM24 24.575H22V21.575C22 21.023 22.448 20.575 23 20.575H28C28.552 20.575 29 21.023 29 21.575V24.575H27V23.575C27 23.023 26.552 22.575 26 22.575H25C24.448 22.575 24 23.023 24 23.575V24.575ZM57 21.575C57 21.023 56.552 20.575 56 20.575H55C54.448 20.575 54 21.023 54 21.575V22.575C54 23.127 54.448 23.575 55 23.575H56C56.552 23.575 57 23.127 57 22.575V21.575ZM48 21.575C48 21.023 47.552 20.575 47 20.575H46C45.448 20.575 45 21.023 45 21.575V22.575C45 23.127 45.448 23.575 46 23.575H47C47.552 23.575 48 23.127 48 22.575V21.575ZM57 17.575C57 17.023 56.552 16.575 56 16.575H55C54.448 16.575 54 17.023 54 17.575V18.575C54 19.127 54.448 19.575 55 19.575H56C56.552 19.575 57 19.127 57 18.575V17.575ZM27 16.575C27 16.023 26.552 15.575 26 15.575H25C24.448 15.575 24 16.023 24 16.575V17.575C24 18.127 24.448 18.575 25 18.575H26C26.552 18.575 27 18.127 27 17.575V16.575ZM48 16.575C48 16.023 47.552 15.575 47 15.575H46C45.448 15.575 45 16.023 45 16.575V17.575C45 18.127 45.448 18.575 46 18.575H47C47.552 18.575 48 18.127 48 17.575V16.575ZM40 13.575C40 13.023 39.552 12.575 39 12.575H38C37.448 12.575 37 13.023 37 13.575V14.575C37 15.127 37.448 15.575 38 15.575H39C39.552 15.575 40 15.127 40 14.575V13.575ZM35 13.575C35 13.023 34.552 12.575 34 12.575H33C32.448 12.575 32 13.023 32 13.575V14.575C32 15.127 32.448 15.575 33 15.575H34C34.552 15.575 35 15.127 35 14.575V13.575ZM31 13.575C31 13.023 30.552 12.575 30 12.575H29C28.448 12.575 28 13.023 28 13.575V14.575C28 15.127 28.448 15.575 29 15.575H30C30.552 15.575 31 15.127 31 14.575V13.575ZM45 13.575C45 13.023 44.552 12.575 44 12.575H43C42.448 12.575 42 13.023 42 13.575V14.575C42 15.127 42.448 15.575 43 15.575H44C44.552 15.575 45 15.127 45 14.575V13.575ZM57 12.575C57 12.023 56.552 11.575 56 11.575H55C54.448 11.575 54 12.023 54 12.575V13.575C54 14.127 54.448 14.575 55 14.575H56C56.552 14.575 57 14.127 57 13.575V12.575ZM27 10.575C27 10.023 26.552 9.57495 26 9.57495H25C24.448 9.57495 24 10.023 24 10.575V11.575C24 12.127 24.448 12.575 25 12.575H26C26.552 12.575 27 12.127 27 11.575V10.575ZM35 8.57495C35 8.02295 34.552 7.57495 34 7.57495H33C32.448 7.57495 32 8.02295 32 8.57495V9.57495C32 10.127 32.448 10.575 33 10.575H34C34.552 10.575 35 10.127 35 9.57495V8.57495ZM39 8.57495C39 8.02295 38.552 7.57495 38 7.57495H37C36.448 7.57495 36 8.02295 36 8.57495V9.57495C36 10.127 36.448 10.575 37 10.575H38C38.552 10.575 39 10.127 39 9.57495V8.57495ZM44 8.57495C44 8.02295 43.552 7.57495 43 7.57495H42C41.448 7.57495 41 8.02295 41 8.57495V9.57495C41 10.127 41.448 10.575 42 10.575H43C43.552 10.575 44 10.127 44 9.57495V8.57495ZM49 8.57495C49 8.02295 48.552 7.57495 48 7.57495H47C46.448 7.57495 46 8.02295 46 8.57495V9.57495C46 10.127 46.448 10.575 47 10.575H48C48.552 10.575 49 10.127 49 9.57495V8.57495ZM54 8.57495C54 8.02295 53.552 7.57495 53 7.57495H52C51.448 7.57495 51 8.02295 51 8.57495V9.57495C51 10.127 51.448 10.575 52 10.575H53C53.552 10.575 54 10.127 54 9.57495V8.57495ZM30 8.57495C30 8.02295 29.552 7.57495 29 7.57495H28C27.448 7.57495 27 8.02295 27 8.57495V9.57495C27 10.127 27.448 10.575 28 10.575H29C29.552 10.575 30 10.127 30 9.57495V8.57495Z" fill="#3A3E40"/>
<path fill-rule="evenodd" clip-rule="evenodd" d="M37.92 38.4949C37.376 43.7259 31.919 47.575 25.5 47.575C19.081 47.575 13.624 43.7259 13.08 38.4949L19 32.575L25.5 38.575L32 32.575L37.92 38.4949ZM20.5 37.575C21.88 37.575 23 38.695 23 40.075C23 41.455 21.88 42.575 20.5 42.575C19.12 42.575 18 41.455 18 40.075C18 38.695 19.12 37.575 20.5 37.575Z" fill="#505355"/>
</svg>
