<svg width="64" height="65" viewBox="0 0 64 65" fill="none" xmlns="http://www.w3.org/2000/svg">
<path d="M32.385 7.70026C34.35 9.69526 35.96 11.9853 37.645 14.2053C37.715 17.6353 37.635 21.0703 37.76 24.5003C34.315 24.9153 30.845 24.7153 27.385 24.6803C27.275 21.1753 27.305 17.6753 27.34 14.1703C29.055 12.0403 30.765 9.90526 32.385 7.70026Z" fill="#24282B"/>
<path d="M15.775 23.4953C18.15 21.6953 20.825 20.3303 23.305 18.6803C23.325 21.8453 23.3 25.0053 23.375 28.1703C20.745 28.2353 18.11 28.2503 15.48 28.2153C15.515 26.6453 15.34 25.0253 15.775 23.4953Z" fill="#24282B"/>
<path d="M41.695 18.6753C44.16 20.3453 46.835 21.7003 49.225 23.4753C49.645 25.0153 49.48 26.6353 49.505 28.2153C46.88 28.2503 44.25 28.2353 41.625 28.1703C41.695 25.0053 41.67 21.8403 41.695 18.6753Z" fill="#24282B"/>
<path d="M27.345 25.5503C30.785 25.4803 34.22 25.4753 37.66 25.5553C37.78 30.8253 37.545 36.1053 37.795 41.3703C39.085 40.0253 40.78 38.9153 41.56 37.1803C41.89 34.4353 41.62 31.6553 41.645 28.9003C44.28 28.9603 46.915 28.9453 49.55 29.0003C49.42 33.2653 49.49 37.5303 49.485 41.8003C45.57 45.6853 41.755 49.6703 37.735 53.4453C37.7 55.2003 37.685 56.9503 37.65 58.7053C34.215 58.7403 30.775 58.7353 27.34 58.7053C27.29 56.9903 27.505 55.2303 27.12 53.5403C26.235 52.2953 25.025 51.3403 23.96 50.2603C21.14 47.4453 18.32 44.6303 15.52 41.7953C15.5 37.5303 15.575 33.2603 15.46 28.9903C18.09 28.9553 20.72 28.9553 23.35 28.8903C23.31 31.7053 23.325 34.5253 23.285 37.3403C24.54 38.7453 25.875 40.0753 27.275 41.3353C27.365 36.0753 27.25 30.8103 27.345 25.5503Z" fill="#505355"/>
</svg>
