<svg width="22" height="22" viewBox="0 0 22 22" fill="none" xmlns="http://www.w3.org/2000/svg">
<path d="M20.461 1.69471C19.9687 1.20253 19.3011 0.926025 18.605 0.926025C17.9089 0.926025 17.2413 1.20253 16.749 1.69471L15.592 2.85171L19.304 6.56371L20.461 5.40671C20.9532 4.91444 21.2297 4.24683 21.2297 3.55071C21.2297 2.8546 20.9532 2.18699 20.461 1.69471ZM18.243 7.62472L14.531 3.91271L6.13101 12.3127C5.51386 12.9296 5.06018 13.6905 4.81101 14.5267L4.01101 17.2117C3.97238 17.3413 3.9695 17.4789 4.00267 17.61C4.03584 17.741 4.10382 17.8607 4.19942 17.9563C4.29502 18.0519 4.41469 18.1199 4.54577 18.1531C4.67684 18.1862 4.81444 18.1833 4.94401 18.1447L7.62901 17.3447C8.46523 17.0955 9.22617 16.6419 9.84301 16.0247L18.243 7.62472Z" fill="#66696B"/>
<path d="M3.98 4.67572C3.18435 4.67572 2.42128 4.99179 1.85868 5.5544C1.29607 6.11701 0.979996 6.88007 0.979996 7.67572V18.1757C0.979996 18.9714 1.29607 19.7344 1.85868 20.297C2.42128 20.8597 3.18435 21.1757 3.98 21.1757H14.48C15.2756 21.1757 16.0387 20.8597 16.6013 20.297C17.1639 19.7344 17.48 18.9714 17.48 18.1757V12.9257C17.48 12.7268 17.401 12.536 17.2603 12.3954C17.1197 12.2547 16.9289 12.1757 16.73 12.1757C16.5311 12.1757 16.3403 12.2547 16.1997 12.3954C16.059 12.536 15.98 12.7268 15.98 12.9257V18.1757C15.98 18.5735 15.822 18.9551 15.5407 19.2364C15.2594 19.5177 14.8778 19.6757 14.48 19.6757H3.98C3.58217 19.6757 3.20064 19.5177 2.91934 19.2364C2.63803 18.9551 2.48 18.5735 2.48 18.1757V7.67572C2.48 7.2779 2.63803 6.89636 2.91934 6.61506C3.20064 6.33376 3.58217 6.17572 3.98 6.17572H9.23C9.42891 6.17572 9.61967 6.0967 9.76033 5.95605C9.90098 5.8154 9.98 5.62463 9.98 5.42572C9.98 5.22681 9.90098 5.03604 9.76033 4.89539C9.61967 4.75474 9.42891 4.67572 9.23 4.67572H3.98Z" fill="#66696B"/>
</svg>
