<svg width="65" height="65" viewBox="0 0 65 65" fill="none" xmlns="http://www.w3.org/2000/svg">
<path d="M41.625 7.83526C44.915 7.24026 48.27 7.33027 51.595 7.49527C45.825 11.4703 40.67 16.9053 39.06 23.9253C42.005 24.6403 45.065 25.7653 46.915 28.3153C50.355 32.8653 50.92 39.1903 49.375 44.5603C46.145 54.4453 33.795 59.1003 24.34 55.9403C30.03 55.7853 36.37 55.1153 40.495 50.7153C44.21 47.1703 43.905 41.4053 42.255 36.9453C40.505 32.1153 35.005 29.8303 30.175 29.9503C27 30.0853 23.585 31.2253 21.7 33.9303C20 36.4453 19.955 39.8553 21.11 42.6003C22.655 46.2153 27.065 48.2253 30.815 47.1003C32.34 46.6153 33.78 45.3303 33.93 43.6603C33.85 42.4753 33.375 41.3703 33 40.2603C32.015 41.0703 31.1 42.0353 29.915 42.5603C28.53 42.7453 27.04 41.6203 27.065 40.1653C27.02 38.0403 29.05 36.3903 31.06 36.2553C33.61 36.0303 36.535 37.1253 37.685 39.5503C38.985 42.6203 37.655 46.3203 35.08 48.3053C30.27 52.2203 23.005 52.0703 17.89 48.8203C15.42 47.1603 13.36 44.9553 11.54 42.6203C10.005 32.7103 14.365 22.1103 22.58 16.3003C28.315 12.3353 34.675 8.97026 41.625 7.83526Z" fill="#505355"/>
<path d="M30.175 29.9503C35.005 29.8303 40.505 32.1153 42.255 36.9453C43.905 41.4053 44.21 47.1703 40.495 50.7153C36.37 55.1153 30.03 55.7853 24.34 55.9403C17.96 54.7703 12.11 49.2703 11.54 42.6203C13.36 44.9553 15.42 47.1603 17.89 48.8203C23.005 52.0703 30.27 52.2203 35.08 48.3053C37.655 46.3203 38.985 42.6203 37.685 39.5503C36.535 37.1253 33.61 36.0303 31.06 36.2553C29.05 36.3903 27.02 38.0403 27.065 40.1653C27.04 41.6203 28.53 42.7453 29.915 42.5603C31.1 42.0353 32.015 41.0703 33 40.2603C33.375 41.3703 33.85 42.4753 33.93 43.6603C33.78 45.3303 32.34 46.6153 30.815 47.1003C27.065 48.2253 22.655 46.2153 21.11 42.6003C19.955 39.8553 20 36.4453 21.7 33.9303C23.585 31.2253 27 30.0853 30.175 29.9503Z" fill="#24282B"/>
</svg>
