<svg width="64" height="65" viewBox="0 0 64 65" fill="none" xmlns="http://www.w3.org/2000/svg">
<path fill-rule="evenodd" clip-rule="evenodd" d="M24 54.575V39.575L15 30.575V20.575H18V13.575L26 9.57495H45L53 16.575V27.575L43 37.575V54.575H45V58.075L44.5 58.575H22.5L22 58.075V54.575H24Z" fill="#202427"/>
<path fill-rule="evenodd" clip-rule="evenodd" d="M41.5 58.575H38.5V56.575C38.5 56.023 38.052 55.575 37.5 55.575H36.5C35.948 55.575 35.5 56.023 35.5 56.575V58.575H30.5V56.575C30.5 56.023 30.052 55.575 29.5 55.575H28.5C27.948 55.575 27.5 56.023 27.5 56.575V58.575H25.5V56.575C25.5 56.023 25.052 55.575 24.5 55.575H23.5C22.948 55.575 22.5 56.023 22.5 56.575V58.575H20V53.575C20 53.023 20.448 52.575 21 52.575H45C45.552 52.575 46 53.023 46 53.575V58.575H44.5V56.575C44.5 56.023 44.052 55.575 43.5 55.575H42.5C41.948 55.575 41.5 56.023 41.5 56.575V58.575ZM25 47.575H29L32 44.575H41C42 44.575 42 45.575 42 45.575V50.575H25V47.575ZM12 31.575C12 31.575 11.992 30.575 12.996 30.575H38V22.575C38 22.575 38 21.575 39 21.575H46C47 21.575 47 22.575 47 22.575V27.575C47 28.575 46 28.575 46 28.575H44L27 45.575H24L12 33.575V31.575ZM34 42.575L44 32.575H46L50 28.575V25.575C50 25.575 50 24.575 51 24.575H53V31.575L42 42.575H34ZM43.5 23.575C44.328 23.575 45 24.247 45 25.075C45 25.903 44.328 26.575 43.5 26.575C42.672 26.575 42 25.903 42 25.075C42 24.247 42.672 23.575 43.5 23.575ZM35 21.575C35 21.575 38 17.575 42.5 17.575C47 17.575 50 21.575 50 21.575L53 19.075C53 19.075 47 13.575 42.5 13.575H18C17 13.575 15 15.575 15 16.575V20.575C15 20.575 15 21.575 16 21.575H35ZM22 11.575C22 11.575 26 6.57495 29 6.57495H42.5C46.5 6.57495 53 16.575 53 16.575C53 16.575 45.5 11.575 42.5 11.575H22Z" fill="#505355"/>
<path fill-rule="evenodd" clip-rule="evenodd" d="M33 49.575C33 49.023 32.552 48.575 32 48.575H31C30.448 48.575 30 49.023 30 49.575V50.575H33V49.575ZM37 49.575C37 49.023 36.552 48.575 36 48.575H35C34.448 48.575 34 49.023 34 49.575V50.575H37V49.575ZM41 49.575C41 49.023 40.552 48.575 40 48.575H39C38.448 48.575 38 49.023 38 49.575V50.575H41V49.575ZM29 49.575C29 49.023 28.552 48.575 28 48.575H27C26.448 48.575 26 49.023 26 49.575V50.575H29V49.575Z" fill="#3A3E40"/>
</svg>
