<svg width="64" height="65" viewBox="0 0 64 65" fill="none" xmlns="http://www.w3.org/2000/svg">
<path d="M20.67 9.88526C22.28 8.57526 23.695 6.97026 25.58 6.03026C29.325 9.12526 32.99 12.3153 36.645 15.5103C36.585 20.8753 36.625 26.2453 36.62 31.6153C32.91 34.8053 29.155 37.9353 25.465 41.1453C21.63 38.0903 17.975 34.8003 14.22 31.6403C14.065 26.2753 14.205 20.9103 14.145 15.5453C16.22 13.5453 18.51 11.7903 20.67 9.88526ZM19.015 17.6603C18.975 21.3503 18.99 25.0353 18.985 28.7253C19.08 29.3953 18.82 30.2703 19.41 30.7803C21.25 32.4953 23.24 34.0403 25.06 35.7803C27.29 34.1403 29.33 32.2653 31.4 30.4403C31.365 26.3653 31.415 22.2953 31.4 18.2253C31.515 17.5503 30.89 17.1603 30.485 16.7553C28.71 15.2403 26.97 13.6803 25.12 12.2503C23.115 14.0853 20.95 15.7453 19.015 17.6603Z" fill="#505355"/>
<path d="M19.015 17.6603C20.95 15.7453 23.115 14.0853 25.12 12.2503C26.97 13.6803 28.71 15.2403 30.485 16.7553C30.89 17.1603 31.515 17.5503 31.4 18.2253C31.415 22.2953 31.365 26.3653 31.4 30.4403C29.33 32.2653 27.29 34.1403 25.06 35.7803C23.24 34.0403 21.25 32.4953 19.41 30.7803C18.82 30.2703 19.08 29.3953 18.985 28.7253C18.99 25.0353 18.975 21.3503 19.015 17.6603ZM24.965 17.2903C24.255 18.0103 23.525 18.7103 22.78 19.3903C22.825 22.4753 22.755 25.5603 22.79 28.6453C23.55 29.3553 24.295 30.0753 25.03 30.8103C25.94 30.1553 26.82 29.4653 27.64 28.7003C27.58 25.8703 27.64 23.0353 27.62 20.2003C27.68 18.7003 26.07 17.9653 24.965 17.2903Z" fill="#24282B"/>
<path d="M24.965 17.2903C26.07 17.9653 27.68 18.7003 27.62 20.2003C27.64 23.0353 27.58 25.8703 27.64 28.7003C26.82 29.4653 25.94 30.1553 25.03 30.8103C24.295 30.0753 23.55 29.3553 22.79 28.6453C22.755 25.5603 22.825 22.4753 22.78 19.3903C23.525 18.7103 24.255 18.0103 24.965 17.2903Z" fill="#505355"/>
<path d="M35.595 38.3153C37.725 36.6653 39.71 34.8352 41.89 33.2552C44.225 35.2702 46.66 37.1702 49.015 39.1652C49.425 39.5852 50.075 39.9952 49.975 40.6802C50.005 44.0452 49.955 47.4103 49.995 50.7753C47.77 52.8803 45.325 54.7303 43.05 56.7803C42.635 57.2253 42.085 57.4753 41.525 57.6753C39.125 55.3853 36.445 53.4203 33.995 51.1853C33.425 50.7003 33.68 49.8703 33.605 49.2253C33.675 46.2253 33.525 43.2203 33.64 40.2253C34.065 39.3953 34.915 38.9103 35.595 38.3153ZM41.675 39.7103C40.5 40.5803 39.34 41.4653 38.2 42.3703C38.21 44.4153 38.2 46.4653 38.23 48.5103C39.38 49.3903 40.52 50.2852 41.65 51.1952C42.76 50.2603 43.915 49.3802 45.145 48.6052C45.23 46.5202 45.185 44.4353 45.23 42.3503C44.055 41.4553 42.865 40.5803 41.675 39.7103Z" fill="#505355"/>
<path d="M41.675 39.7103C42.865 40.5803 44.055 41.4553 45.23 42.3503C45.185 44.4353 45.23 46.5203 45.145 48.6053C43.915 49.3803 42.76 50.2603 41.65 51.1953C40.52 50.2853 39.38 49.3903 38.23 48.5103C38.2 46.4653 38.21 44.4153 38.2 42.3703C39.34 41.4653 40.5 40.5803 41.675 39.7103Z" fill="#24282B"/>
</svg>
