<svg width="64" height="65" viewBox="0 0 64 65" fill="none" xmlns="http://www.w3.org/2000/svg">
<path fill-rule="evenodd" clip-rule="evenodd" d="M15.36 9.93061L6 19.3397V27.7033L19.52 45.4759L32 51.7486L44.48 45.4759L58 27.7033V19.3397L48.64 9.93061L32 5.74881L15.36 9.93061Z" fill="#191C1E"/>
<path fill-rule="evenodd" clip-rule="evenodd" d="M23 50.25C25 50.25 30 60.75 30 60.75H16C16 60.75 21 50.25 23 50.25ZM41 50.25C43 50.25 48 60.75 48 60.75H34C34 60.75 39 50.25 41 50.25ZM15 8.75L5 18.75V28.75L19 46.75L32 52.75L45 46.75L59 28.75V18.75L49 8.75L32 4.75L15 8.75ZM11 42.25C13 42.25 18 52.75 18 52.75H4C4 52.75 9 42.25 11 42.25ZM53 42.25C55 42.25 60 52.75 60 52.75H46C46 52.75 51 42.25 53 42.25ZM16 10.75L7 19.75V27.75L20 44.75L32 50.75L44 44.75L57 27.75V19.75L48 10.75L32 6.75L16 10.75ZM21 42.75V23.75H9L21 42.75ZM43 42.75V23.75H55L43 42.75ZM18 12.75L22 19.75L29 12.75H18ZM46 12.75L42 19.75L35 12.75H46Z" fill="#3A3E40"/>
<path fill-rule="evenodd" clip-rule="evenodd" d="M23 43.75L29 46.75L27 42.75L23 43.75ZM41 43.75L35 46.75L37 42.75L41 43.75ZM23 23.75H41L35 39.75H29L23 23.75Z" fill="#505355"/>
<path fill-rule="evenodd" clip-rule="evenodd" d="M29 41.75L32 47.75L35 41.75H29ZM27 40.75L23 29.75V41.75L27 40.75ZM37 40.75L41 29.75V41.75L37 40.75ZM16 13.75L21 21.75H9L16 13.75ZM23 21.75L32 12.75L41 21.75H23ZM48 13.75L43 21.75H55L48 13.75ZM31 11.75V8.75L20 11.75H31ZM33 8.75L44 11.75H33V8.75Z" fill="#66696B"/>
</svg>
