<svg width="55" height="51" viewBox="0 0 55 51" fill="none" xmlns="http://www.w3.org/2000/svg">
<path fill-rule="evenodd" clip-rule="evenodd" d="M10.86 0.999023L1.5 10.5284V18.999L15.02 36.9989H39.98L53.5 18.999V10.5284L44.14 0.999023H10.86Z" fill="#191C1E"/>
<path fill-rule="evenodd" clip-rule="evenodd" d="M27.5 40.5C29.5 40.5 34.5 51 34.5 51H20.5C20.5 51 25.5 40.5 27.5 40.5ZM10.5 0L0.5 10V20L14.5 38H40.5L54.5 20V10L44.5 0H10.5ZM11.5 2L2.5 11V19L15.5 36H39.5L52.5 19V11L43.5 2H11.5ZM20.5 16L25.5 34L15.5 16H20.5ZM34.5 16L29.5 34L39.5 16H34.5ZM20.5 13L25.5 4L15.5 13H20.5ZM34.5 13L29.5 4L39.5 13H34.5Z" fill="#3A3E40"/>
<path fill-rule="evenodd" clip-rule="evenodd" d="M23.5 16H31.5L27.5 34L23.5 16Z" fill="#505355"/>
<path fill-rule="evenodd" clip-rule="evenodd" d="M23.5 13L27.5 4L31.5 13H23.5Z" fill="#66696B"/>
</svg>
