<svg width="54" height="52" viewBox="0 0 54 52" fill="none" xmlns="http://www.w3.org/2000/svg">
<path fill-rule="evenodd" clip-rule="evenodd" d="M10.36 0.999023L1 10.5284V18.999L14.52 36.9989H39.48L53 18.999V10.5284L43.64 0.999023H10.36Z" fill="#191C1E"/>
<path fill-rule="evenodd" clip-rule="evenodd" d="M27 41C29 41 34 51.5 34 51.5H20C20 51.5 25 41 27 41ZM9 39C11 39 16 49.5 16 49.5H2C2 49.5 7 39 9 39ZM45 39C47 39 52 49.5 52 49.5H38C38 49.5 43 39 45 39ZM10 0L0 10V20L14 38H40L54 20V10L44 0H10ZM11 2L2 11V19L15 36H39L52 19V11L43 2H11ZM16 34V15H4L16 34ZM38 34V15H50L38 34ZM13 4L17 11L24 4H13ZM41 4L37 11L30 4H41Z" fill="#3A3E40"/>
<path fill-rule="evenodd" clip-rule="evenodd" d="M18 15H36L27 34L18 15Z" fill="#505355"/>
<path fill-rule="evenodd" clip-rule="evenodd" d="M25 34L18 21V34H25ZM29 34L36 21V34H29ZM11 5L16 13H4L11 5ZM18 13L27 4L36 13H18ZM43 5L38 13H50L43 5Z" fill="#66696B"/>
</svg>
