<svg width="65" height="65" viewBox="0 0 65 65" fill="none" xmlns="http://www.w3.org/2000/svg">
<path fill-rule="evenodd" clip-rule="evenodd" d="M17.223 37.575L10.223 38.575L7.22302 41.575V43.575L8.22302 44.575L7.22302 45.575V47.575L8.22302 48.575L7.22302 49.575V51.575L10.223 54.575L17.223 55.575H22.223L24.223 54.575L26.223 55.575H31.223L32.723 54.575L34.223 55.575H36.223L39.746 54.575L43.223 55.575H46.223L52.223 41.575L51.223 37.575L48.223 35.575V30.575L47.223 28.075L48.223 25.575V20.575L47.223 18.075L48.223 15.575V10.575H30.223V15.575L31.223 18.075L30.223 20.575V25.575L31.223 28.075L30.223 30.575V37.575H26.223L24.223 38.575L22.223 37.575H17.223Z" fill="#202427"/>
<path fill-rule="evenodd" clip-rule="evenodd" d="M7.22302 41.575C7.22302 39.367 9.01502 37.575 11.223 37.575H17.223V55.575H11.223C9.01502 55.575 7.22302 53.783 7.22302 51.575H12.223C12.775 51.575 13.223 51.127 13.223 50.575C13.223 50.023 12.775 49.575 12.223 49.575H7.22302V47.575H12.223C12.775 47.575 13.223 47.127 13.223 46.575C13.223 46.023 12.775 45.575 12.223 45.575H7.22302V43.575H12.223C12.775 43.575 13.223 43.127 13.223 42.575C13.223 42.023 12.775 41.575 12.223 41.575H7.22302ZM34.223 44.575C34.223 44.023 33.775 43.575 33.223 43.575H32.223C31.671 43.575 31.223 44.023 31.223 44.575V55.575H34.223V44.575ZM46.223 46.575C47.223 46.575 51.223 42.575 51.223 41.575V37.575C51.223 37.575 56.223 40.575 56.223 42.575V50.575C56.223 51.575 52.223 55.575 51.223 55.575H46.223C46.223 55.575 45.223 55.491 45.223 54.533V47.575C45.223 47.575 45.223 46.575 46.223 46.575Z" fill="#3A3E40"/>
<path fill-rule="evenodd" clip-rule="evenodd" d="M48.268 35.575H31.223C30.223 35.575 30.223 36.575 30.223 36.575V40.53C30.223 40.53 30.223 41.575 31.223 41.575H35.223C35.223 41.575 36.223 41.575 36.223 42.575V55.575H43.223V45.575L48.268 40.53V35.575ZM27.223 38.575C27.223 38.023 26.775 37.575 26.223 37.575H22.223C21.671 37.575 21.223 38.023 21.223 38.575V54.575C21.223 55.127 21.671 55.575 22.223 55.575H26.223C26.775 55.575 27.223 55.127 27.223 54.575V38.575ZM39.723 50.575C40.551 50.575 41.223 51.247 41.223 52.075C41.223 52.903 40.551 53.575 39.723 53.575C38.895 53.575 38.223 52.903 38.223 52.075C38.223 51.247 38.895 50.575 39.723 50.575ZM24.223 50.075C25.051 50.075 25.723 50.747 25.723 51.575C25.723 52.403 25.051 53.075 24.223 53.075C23.395 53.075 22.723 52.403 22.723 51.575C22.723 50.747 23.395 50.075 24.223 50.075ZM24.223 45.075C25.051 45.075 25.723 45.747 25.723 46.575C25.723 47.403 25.051 48.075 24.223 48.075C23.395 48.075 22.723 47.403 22.723 46.575C22.723 45.747 23.395 45.075 24.223 45.075ZM24.223 40.075C25.051 40.075 25.723 40.747 25.723 41.575C25.723 42.403 25.051 43.075 24.223 43.075C23.395 43.075 22.723 42.403 22.723 41.575C22.723 40.747 23.395 40.075 24.223 40.075ZM48.223 25.575C48.223 25.023 47.775 24.575 47.223 24.575H31.223C30.671 24.575 30.223 25.023 30.223 25.575V30.575C30.223 31.127 30.671 31.575 31.223 31.575H47.223C47.775 31.575 48.223 31.127 48.223 30.575V25.575ZM33.723 26.575C34.551 26.575 35.223 27.247 35.223 28.075C35.223 28.903 34.551 29.575 33.723 29.575C32.895 29.575 32.223 28.903 32.223 28.075C32.223 27.247 32.895 26.575 33.723 26.575ZM44.723 26.575C45.551 26.575 46.223 27.247 46.223 28.075C46.223 28.903 45.551 29.575 44.723 29.575C43.895 29.575 43.223 28.903 43.223 28.075C43.223 27.247 43.895 26.575 44.723 26.575ZM39.223 26.575C40.879 26.575 42.223 27.247 42.223 28.075C42.223 28.903 40.879 29.575 39.223 29.575C37.567 29.575 36.223 28.903 36.223 28.075C36.223 27.247 37.567 26.575 39.223 26.575ZM48.223 15.575C48.223 15.023 47.775 14.575 47.223 14.575H31.223C30.671 14.575 30.223 15.023 30.223 15.575V20.575C30.223 21.127 30.671 21.575 31.223 21.575H47.223C47.775 21.575 48.223 21.127 48.223 20.575V15.575ZM39.223 16.575C40.879 16.575 42.223 17.247 42.223 18.075C42.223 18.903 40.879 19.575 39.223 19.575C37.567 19.575 36.223 18.903 36.223 18.075C36.223 17.247 37.567 16.575 39.223 16.575ZM33.723 16.575C34.551 16.575 35.223 17.247 35.223 18.075C35.223 18.903 34.551 19.575 33.723 19.575C32.895 19.575 32.223 18.903 32.223 18.075C32.223 17.247 32.895 16.575 33.723 16.575ZM44.723 16.575C45.551 16.575 46.223 17.247 46.223 18.075C46.223 18.903 45.551 19.575 44.723 19.575C43.895 19.575 43.223 18.903 43.223 18.075C43.223 17.247 43.895 16.575 44.723 16.575ZM50.223 9.57495C50.223 9.02295 49.775 8.57495 49.223 8.57495H29.223C28.671 8.57495 28.223 9.02295 28.223 9.57495V10.575C28.223 11.127 28.671 11.575 29.223 11.575H49.223C49.775 11.575 50.223 11.127 50.223 10.575V9.57495Z" fill="#505355"/>
</svg>
