<svg width="16" height="17" viewBox="0 0 16 17" fill="none" xmlns="http://www.w3.org/2000/svg">
<path fill-rule="evenodd" clip-rule="evenodd" d="M7.67631 0.0872803C6.40606 0.0872803 5.18784 0.523075 4.28964 1.29879C3.39144 2.07451 2.88684 3.12661 2.88684 4.22364V6.58728C2.16098 6.58728 1.46485 6.8363 0.951596 7.27957C0.438339 7.72284 0.149994 8.32404 0.149994 8.95092V14.2691C0.149994 14.896 0.438339 15.4972 0.951596 15.9404C1.46485 16.3837 2.16098 16.6327 2.88684 16.6327H12.4658C13.1916 16.6327 13.8878 16.3837 14.401 15.9404C14.9143 15.4972 15.2026 14.896 15.2026 14.2691V8.95092C15.2026 8.32404 14.9143 7.72284 14.401 7.27957C13.8878 6.8363 13.1916 6.58728 12.4658 6.58728V4.22364C12.4658 1.9388 10.3219 0.0872803 7.67631 0.0872803ZM11.0974 6.58728V4.22364C11.0974 3.44005 10.7369 2.68855 10.0954 2.13446C9.45379 1.58038 8.58363 1.2691 7.67631 1.2691C6.76899 1.2691 5.89883 1.58038 5.25726 2.13446C4.61569 2.68855 4.25526 3.44005 4.25526 4.22364V6.58728H11.0974Z" fill="#505355"/>
</svg>
