<svg width="21" height="18" viewBox="0 0 21 18" fill="none" xmlns="http://www.w3.org/2000/svg">
<path d="M14.7734 6.348H19.7654L16.5844 3.165C15.5603 2.14087 14.2846 1.40439 12.8856 1.02961C11.4866 0.654818 10.0136 0.654928 8.61464 1.02992C7.2157 1.40492 5.94014 2.14159 4.91617 3.16587C3.89221 4.19015 3.15594 5.46595 2.78138 6.865M1.73537 16.644V11.652M1.73537 11.652H6.72738M1.73537 11.652L4.91537 14.835C5.93949 15.8591 7.21517 16.5956 8.61416 16.9704C10.0132 17.3452 11.4862 17.3451 12.8851 16.9701C14.284 16.5951 15.5596 15.8584 16.5836 14.8341C17.6075 13.8099 18.3438 12.5341 18.7184 11.135M19.7654 1.356V6.346" stroke="#3A3E40" stroke-width="1.5" stroke-linecap="round" stroke-linejoin="round"/>
</svg>
