<svg width="51" height="51" viewBox="0 0 51 51" fill="none" xmlns="http://www.w3.org/2000/svg">
<path d="M17.3746 23.5278C17.3746 22.8097 17.516 22.0985 17.7909 21.435C18.0657 20.7715 18.4685 20.1687 18.9763 19.6608C19.4842 19.153 20.087 18.7502 20.7505 18.4754C21.414 18.2005 22.1252 18.0591 22.8433 18.0591C23.5615 18.0591 24.2726 18.2005 24.9361 18.4754C25.5996 18.7502 26.2025 19.153 26.7103 19.6608C27.2181 20.1687 27.621 20.7715 27.8958 21.435C28.1706 22.0985 28.3121 22.8097 28.3121 23.5278C28.3121 24.9782 27.7359 26.3692 26.7103 27.3948C25.6847 28.4204 24.2937 28.9966 22.8433 28.9966C21.3929 28.9966 20.0019 28.4204 18.9763 27.3948C17.9507 26.3692 17.3746 24.9782 17.3746 23.5278Z" fill="#3A3E40"/>
<path fill-rule="evenodd" clip-rule="evenodd" d="M25.1871 5.55908C13.9683 5.55908 4.87457 14.6528 4.87457 25.8716C4.87457 37.0903 13.9683 46.1841 25.1871 46.1841C36.4058 46.1841 45.4996 37.0903 45.4996 25.8716C45.4996 14.6528 36.4058 5.55908 25.1871 5.55908ZM22.8433 14.9341C21.4966 14.9343 20.1689 15.2511 18.9671 15.8588C17.7653 16.4665 16.7232 17.3481 15.9247 18.4326C15.1262 19.517 14.5938 20.7739 14.3704 22.102C14.1469 23.43 14.2387 24.7919 14.6384 26.078C15.038 27.364 15.7342 28.5381 16.671 29.5056C17.6077 30.4731 18.7588 31.2069 20.0312 31.6479C21.3037 32.0888 22.6619 32.2245 23.9965 32.0441C25.331 31.8637 26.6045 31.3721 27.7142 30.6091L31.8954 34.7882C32.0385 34.9418 32.211 35.0649 32.4026 35.1503C32.5943 35.2357 32.8012 35.2816 33.011 35.2853C33.2208 35.289 33.4292 35.2504 33.6237 35.1718C33.8183 35.0933 33.995 34.9763 34.1434 34.8279C34.2918 34.6795 34.4087 34.5028 34.4873 34.3082C34.5659 34.1137 34.6045 33.9053 34.6008 33.6955C34.5971 33.4857 34.5512 33.2788 34.4658 33.0871C34.3804 32.8955 34.2573 32.723 34.1037 32.5799L29.9246 28.3987C30.8123 27.1083 31.3305 25.5999 31.4232 24.0364C31.5159 22.473 31.1795 20.9139 30.4505 19.5277C29.7215 18.1415 28.6275 16.9809 27.2868 16.1713C25.946 15.3617 24.4095 14.9339 22.8433 14.9341Z" fill="#3A3E40"/>
</svg>
