<svg width="64" height="65" viewBox="0 0 64 65" fill="none" xmlns="http://www.w3.org/2000/svg">
<path fill-rule="evenodd" clip-rule="evenodd" d="M19 43.2389H23V47.2389H19V56.2389H14V39.2389H19V43.2389ZM54.5 28.7389H38.5V44.7389H54.5V28.7389Z" fill="#202427"/>
<path fill-rule="evenodd" clip-rule="evenodd" d="M51.5 32.7389C51.5 32.1869 51.052 31.7389 50.5 31.7389H42.5C41.948 31.7389 41.5 32.1869 41.5 32.7389V40.7389C41.5 41.2889 41.948 41.7389 42.5 41.7389H50.5C51.052 41.7389 51.5 41.2889 51.5 40.7389V32.7389Z" fill="#24282B"/>
<path fill-rule="evenodd" clip-rule="evenodd" d="M19 55.2389H14V57.2389H19V55.2389ZM19 50.2389H14V53.2389H19V50.2389Z" fill="#3A3E40"/>
<path fill-rule="evenodd" clip-rule="evenodd" d="M58.716 38.2389C58.035 43.8289 53.595 48.2689 48 48.9589V47.2389C48 46.6889 47.552 46.2389 47 46.2389H46C45.448 46.2389 45 46.6889 45 47.2389V48.9589C39.405 48.2689 34.965 43.8289 34.284 38.2389H36C36.552 38.2389 37 37.7909 37 37.2389V36.2389C37 35.6869 36.552 35.2389 36 35.2389H34.284C34.965 29.6449 39.405 25.2039 45 24.5229V26.2389C45 26.7909 45.448 27.2389 46 27.2389H47C47.552 27.2389 48 26.7909 48 26.2389V24.5229C53.595 25.2039 58.035 29.6449 58.716 35.2389H57C56.448 35.2389 56 35.6869 56 36.2389V37.2389C56 37.7909 56.448 38.2389 57 38.2389H58.716ZM20 43.2389V47.2389H7C6.448 47.2389 6 46.7889 6 46.2389V44.2389C6 43.6889 6.448 43.2389 7 43.2389H20ZM22 43.2389H24C24.552 43.2389 25 43.6889 25 44.2389V46.2389C25 46.7889 24.552 47.2389 24 47.2389H22V43.2389ZM53 31.2389C53 30.6869 52.552 30.2389 52 30.2389H41C40.448 30.2389 40 30.6869 40 31.2389V42.2389C40 42.7889 40.448 43.2389 41 43.2389H52C52.552 43.2389 53 42.7889 53 42.2389V31.2389ZM14 40.2389H19V7.23892H18L14 11.2389V40.2389Z" fill="#505355"/>
</svg>
