<svg width="64" height="65" viewBox="0 0 64 65" fill="none" xmlns="http://www.w3.org/2000/svg">
<path d="M10.45 7.19526C15.995 7.22526 21.535 7.23526 27.08 7.19026C33.435 14.6703 39.57 22.3353 45.87 29.8553C46.785 31.1053 47.935 32.1703 48.78 33.4703C41.98 33.4053 35.18 33.6153 28.38 33.5853C32.72 38.6903 37.045 43.8103 41.305 48.9803C43.995 49.0353 46.685 48.9653 49.375 49.0053C49.32 44.8853 49.36 40.7653 49.34 36.6503C50.625 35.6003 51.825 34.4603 52.97 33.2703C53.055 41.1453 52.975 49.0253 53.015 56.9053C42.285 56.8253 31.555 56.8553 20.825 56.8053C22.495 55.3653 24.335 54.1453 26.07 52.7903C30.605 52.7903 35.135 52.7603 39.67 52.8353C30.94 44.9353 21.99 37.2803 13.24 29.4103C19.615 29.4403 25.99 29.3953 32.365 29.4403C25.82 22.6353 19.145 15.9403 12.535 9.18526C11.865 8.50026 11.165 7.84026 10.45 7.19526Z" fill="#505355"/>
</svg>
