<svg width="65" height="65" viewBox="0 0 65 65" fill="none" xmlns="http://www.w3.org/2000/svg">
<path fill-rule="evenodd" clip-rule="evenodd" d="M28.223 54.075V39.575L25.223 33.575H23.223L18.223 37.575V49.575L13.223 54.575H7.22302L6.22302 53.575V50.575L7.22302 49.575V47.575L6.22302 46.575V42.575L11.223 27.575L12.223 26.575L11.223 25.575V21.575L12.223 20.575L11.223 19.575V16.575L12.223 15.559L11.223 14.575V11.575L12.223 10.575H52.223L53.223 11.575V14.575L52.223 15.559L53.223 16.575V19.575L52.223 20.575L53.223 21.575V25.575L52.223 26.575L53.223 27.575L58.223 42.575V46.575L57.223 47.575V49.575L58.223 50.575V53.575L57.223 54.575H51.223L46.223 49.575V37.575L41.223 33.575H39.223L36.223 39.575V54.075H28.223Z" fill="#202427"/>
<path fill-rule="evenodd" clip-rule="evenodd" d="M50.223 45.575V48.575L52.223 50.575H58.223V46.575C58.223 46.575 58.223 45.575 57.223 45.575H50.223ZM14.223 45.575V48.575L12.223 50.575H6.22302V46.575C6.22302 46.575 6.22302 45.575 7.22302 45.575H14.223ZM56.223 38.575C58.223 38.575 58.223 40.575 58.223 40.575V42.575H50.223V38.575H56.223ZM8.22302 38.575C6.22302 38.575 6.22302 40.575 6.22302 40.575V42.575H14.223V38.575H8.22302Z" fill="#3A3E40"/>
<path fill-rule="evenodd" clip-rule="evenodd" d="M34.223 50.575C34.223 50.023 33.775 49.575 33.223 49.575H31.223C30.671 49.575 30.223 50.023 30.223 50.575C30.223 51.127 30.671 51.575 31.223 51.575H33.223C33.775 51.575 34.223 51.127 34.223 50.575ZM34.223 45.575C34.223 45.023 33.775 44.575 33.223 44.575H31.223C30.671 44.575 30.223 45.023 30.223 45.575C30.223 46.127 30.671 46.575 31.223 46.575H33.223C33.775 46.575 34.223 46.127 34.223 45.575ZM34.223 39.575C34.223 39.023 33.775 38.575 33.223 38.575H31.223C30.671 38.575 30.223 39.023 30.223 39.575C30.223 40.127 30.671 40.575 31.223 40.575H33.223C33.775 40.575 34.223 40.127 34.223 39.575ZM14.223 31.575C14.223 31.023 13.775 30.575 13.223 30.575H10.223C9.67102 30.575 9.22302 31.023 9.22302 31.575V33.575C9.22302 34.127 9.67102 34.575 10.223 34.575H13.223C13.775 34.575 14.223 34.127 14.223 33.575V31.575ZM26.223 31.575C26.223 31.023 25.775 30.575 25.223 30.575H23.223C22.671 30.575 22.223 31.023 22.223 31.575V33.575C22.223 34.127 22.671 34.575 23.223 34.575H25.223C25.775 34.575 26.223 34.127 26.223 33.575V31.575ZM38.223 31.575C38.223 31.023 38.671 30.575 39.223 30.575H41.223C41.775 30.575 42.223 31.023 42.223 31.575V33.575C42.223 34.127 41.775 34.575 41.223 34.575H39.223C38.671 34.575 38.223 34.127 38.223 33.575V31.575ZM50.223 31.575C50.223 31.023 50.671 30.575 51.223 30.575H54.223C54.775 30.575 55.223 31.023 55.223 31.575V33.575C55.223 34.127 54.775 34.575 54.223 34.575H51.223C50.671 34.575 50.223 34.127 50.223 33.575V31.575ZM19.223 31.575C19.223 31.023 18.775 30.575 18.223 30.575C17.671 30.575 17.223 31.023 17.223 31.575C17.223 32.127 17.671 32.575 18.223 32.575C18.775 32.575 19.223 32.127 19.223 31.575ZM45.223 31.575C45.223 31.023 45.671 30.575 46.223 30.575C46.775 30.575 47.223 31.023 47.223 31.575C47.223 32.127 46.775 32.575 46.223 32.575C45.671 32.575 45.223 32.127 45.223 31.575ZM33.223 30.575H31.223C31.223 30.575 30.223 30.575 30.223 31.575C30.223 32.575 31.223 32.575 31.223 32.575H33.223C33.223 32.575 34.223 32.575 34.223 31.575C34.223 30.575 33.223 30.575 33.223 30.575Z" fill="#3A3E40"/>
<path fill-rule="evenodd" clip-rule="evenodd" d="M28.223 55.575C27.223 55.575 27.223 54.575 27.223 54.575V39.575C27.223 39.575 27.223 38.575 28.223 38.575C29.223 38.575 29.223 39.575 29.223 39.575V53.575H35.223V39.575C35.223 39.575 35.223 38.575 36.223 38.575C37.223 38.575 37.223 39.575 37.223 39.575V54.575C37.223 54.575 37.223 55.575 36.223 55.575H28.223ZM46.223 36.575C45.223 36.575 45.223 37.575 45.223 37.575V50.575L50.223 55.575H58.223V53.575H51.223L47.223 49.575V37.575C47.223 37.575 47.223 36.575 46.223 36.575ZM18.223 36.575C19.223 36.575 19.223 37.575 19.223 37.575V50.575L14.223 55.575H6.22302V53.575H13.223L17.223 49.575V37.575C17.223 37.575 17.223 36.575 18.223 36.575ZM43.223 20.575C43.223 20.023 42.775 19.575 42.223 19.575H35.223C34.671 19.575 34.223 20.023 34.223 20.575V26.575C34.223 27.127 34.671 27.575 35.223 27.575H42.223C42.775 27.575 43.223 27.127 43.223 26.575V20.575ZM53.223 21.575H50.223C49.671 21.575 49.223 22.023 49.223 22.575V24.575C49.223 25.127 49.671 25.575 50.223 25.575H53.223V27.575H48.223C47.671 27.575 47.223 27.127 47.223 26.575V20.575C47.223 20.023 47.671 19.575 48.223 19.575H53.223V21.575ZM21.223 20.575C21.223 20.023 21.671 19.575 22.223 19.575H29.223C29.775 19.575 30.223 20.023 30.223 20.575V26.575C30.223 27.127 29.775 27.575 29.223 27.575H22.223C21.671 27.575 21.223 27.127 21.223 26.575V20.575ZM11.223 21.575H14.223C14.775 21.575 15.223 22.023 15.223 22.575V24.575C15.223 25.127 14.775 25.575 14.223 25.575H11.223V27.575H16.223C16.775 27.575 17.223 27.127 17.223 26.575V20.575C17.223 20.023 16.775 19.575 16.223 19.575H11.223V21.575ZM41.223 22.575C41.223 22.023 40.775 21.575 40.223 21.575H37.223C36.671 21.575 36.223 22.023 36.223 22.575V24.575C36.223 25.127 36.671 25.575 37.223 25.575H40.223C40.775 25.575 41.223 25.127 41.223 24.575V22.575ZM23.223 22.575C23.223 22.023 23.671 21.575 24.223 21.575H27.223C27.775 21.575 28.223 22.023 28.223 22.575V24.575C28.223 25.127 27.775 25.575 27.223 25.575H24.223C23.671 25.575 23.223 25.127 23.223 24.575V22.575ZM53.223 11.575H52.223C51.671 11.575 51.223 12.023 51.223 12.575V13.575C51.223 14.127 51.671 14.575 52.223 14.575H53.223V16.575H11.223V14.575H12.223C12.775 14.575 13.223 14.127 13.223 13.575V12.575C13.223 12.023 12.775 11.575 12.223 11.575H11.223V9.57495H53.223V11.575ZM36.223 12.575C36.223 12.023 35.775 11.575 35.223 11.575H34.223C33.671 11.575 33.223 12.023 33.223 12.575V13.575C33.223 14.127 33.671 14.575 34.223 14.575H35.223C35.775 14.575 36.223 14.127 36.223 13.575V12.575ZM42.223 12.575C42.223 12.023 41.775 11.575 41.223 11.575H40.223C39.671 11.575 39.223 12.023 39.223 12.575V13.575C39.223 14.127 39.671 14.575 40.223 14.575H41.223C41.775 14.575 42.223 14.127 42.223 13.575V12.575ZM48.223 12.575C48.223 12.023 47.775 11.575 47.223 11.575H46.223C45.671 11.575 45.223 12.023 45.223 12.575V13.575C45.223 14.127 45.671 14.575 46.223 14.575H47.223C47.775 14.575 48.223 14.127 48.223 13.575V12.575ZM19.223 12.575C19.223 12.023 18.775 11.575 18.223 11.575H17.223C16.671 11.575 16.223 12.023 16.223 12.575V13.575C16.223 14.127 16.671 14.575 17.223 14.575H18.223C18.775 14.575 19.223 14.127 19.223 13.575V12.575ZM25.223 12.575C25.223 12.023 24.775 11.575 24.223 11.575H23.223C22.671 11.575 22.223 12.023 22.223 12.575V13.575C22.223 14.127 22.671 14.575 23.223 14.575H24.223C24.775 14.575 25.223 14.127 25.223 13.575V12.575ZM31.223 12.575C31.223 12.023 30.775 11.575 30.223 11.575H29.223C28.671 11.575 28.223 12.023 28.223 12.575V13.575C28.223 14.127 28.671 14.575 29.223 14.575H30.223C30.775 14.575 31.223 14.127 31.223 13.575V12.575Z" fill="#505355"/>
</svg>
