<svg width="64" height="65" viewBox="0 0 64 65" fill="none" xmlns="http://www.w3.org/2000/svg">
<path d="M28.385 19.6353C29.87 15.7003 30.905 11.6153 32.21 7.62526C33.755 13.9153 35.31 20.2753 38.06 26.1753C40.015 30.3503 44.02 32.8703 46.985 36.2303C50.075 39.6753 50.48 44.7403 49.345 49.0553C48.265 53.1203 44.745 56.6553 40.465 57.1003C37.485 57.3953 34.485 57.1653 31.5 57.2153C28.705 57.1903 25.89 57.4103 23.11 57.0153C20.18 56.6003 17.495 54.7753 16 52.2253C14.6 49.9953 14.11 47.3203 14.07 44.7203C14.06 42.5103 14.41 40.2153 15.61 38.3203C17.565 35.1803 20.74 33.1053 23.055 30.2703C25.655 27.2003 27.025 23.3603 28.385 19.6353ZM20.99 42.7653C21.37 44.8653 21.445 47.1753 22.795 48.9403C24.11 50.8403 26.39 51.7753 28.61 52.0653C31.16 52.3903 33.77 52.4353 36.31 51.9853C38.995 51.4903 41.125 49.4303 42.38 47.0903C42.835 45.8503 42.945 44.5153 43.22 43.2303C42.085 44.3403 41.015 45.5203 39.8 46.5453C37.985 48.0303 35.55 48.4003 33.275 48.5103C30.665 48.5853 27.91 48.4503 25.575 47.1653C23.74 46.0553 22.445 44.3003 20.99 42.7653Z" fill="#505355"/>
<path d="M20.99 42.7653C22.445 44.3003 23.74 46.0553 25.575 47.1653C27.91 48.4503 30.665 48.5853 33.275 48.5103C35.55 48.4003 37.985 48.0303 39.8 46.5453C41.015 45.5203 42.085 44.3403 43.22 43.2303C42.945 44.5153 42.835 45.8503 42.38 47.0903C41.125 49.4303 38.995 51.4903 36.31 51.9853C33.77 52.4353 31.16 52.3903 28.61 52.0653C26.39 51.7753 24.11 50.8403 22.795 48.9403C21.445 47.1753 21.37 44.8653 20.99 42.7653Z" fill="#24282B"/>
</svg>
