<svg width="70" height="70" viewBox="0 0 70 70" fill="none" xmlns="http://www.w3.org/2000/svg">
<path d="M35 -0.00219727L21.7052 13.6038L11.1013 10.6871L13.8755 21.3304L0 35L13.8755 48.6695L11.1013 59.3129L21.7052 56.3962L35 70.0022L48.2948 56.3962L58.8987 59.3129L56.1245 48.6695L70 35L56.1245 21.3304L58.8987 10.6871L48.2948 13.6038L35 -0.00219727ZM25.9542 18.0719L35.0022 26.9578L44.048 18.0719V21.3984L35.0022 30.7861L25.9542 21.3984V18.0719ZM18.0741 25.952H21.4006L30.7904 35L21.4006 44.048H18.0741L26.9644 35L18.0741 25.952ZM48.6016 25.952H51.9281L43.0378 35L51.9281 44.048H48.6016L39.2117 35L48.6016 25.952ZM35.0022 39.2139L44.048 48.6016V51.9281L35.0022 43.0422L25.9542 51.9281V48.6016L35.0022 39.2139Z" fill="#F8FFFF"/>
</svg>
